<?xml version="1.0" standalone="no"?>
<!DOCTYPE svg PUBLIC "-//W3C//DTD SVG 20010904//EN"
 "http://www.w3.org/TR/2001/REC-SVG-20010904/DTD/svg10.dtd">
<svg version="1.0" xmlns="http://www.w3.org/2000/svg"
 width="700.000000pt" height="700.000000pt" viewBox="0 0 700.000000 700.000000"
 preserveAspectRatio="xMidYMid meet">
<metadata>
Created by potrace 1.11, written by Peter Selinger 2001-2013
</metadata>
<g transform="translate(0.000000,700.000000) scale(0.100000,-0.100000)"
fill="#000000" stroke="none">
<path d="M3298 6996 c-1 -2 -41 -6 -88 -10 -100 -7 -225 -22 -295 -36 -27 -5
-61 -12 -75 -14 -189 -35 -486 -120 -625 -181 -16 -7 -55 -23 -85 -35 -82 -33
-321 -154 -408 -207 -139 -84 -369 -244 -434 -303 -9 -8 -41 -35 -72 -60 -60
-50 -307 -296 -375 -375 -69 -81 -232 -302 -298 -405 -168 -263 -320 -602
-408 -908 -19 -67 -37 -133 -39 -145 -26 -120 -55 -283 -61 -332 -4 -33 -9
-69 -11 -80 -19 -99 -26 -567 -11 -715 9 -81 25 -209 33 -250 2 -14 7 -41 10
-60 29 -180 115 -479 196 -680 52 -129 168 -369 213 -439 14 -23 25 -43 25
-46 0 -14 207 -310 286 -409 133 -165 304 -339 504 -510 96 -82 350 -259 465
-324 116 -65 270 -141 430 -211 204 -90 637 -206 845 -227 36 -3 68 -8 71 -10
15 -9 235 -19 419 -19 186 0 325 7 420 21 568 82 1011 244 1475 539 56 36 261
185 314 230 736 613 1188 1473 1269 2410 14 164 7 566 -13 705 -3 19 -7 56
-10 81 -3 25 -7 54 -9 65 -2 10 -11 60 -21 109 -181 970 -798 1841 -1668 2355
-314 185 -769 358 -1092 415 -22 4 -49 9 -60 11 -23 3 -216 31 -285 40 -48 6
-526 15 -532 10z m502 -259 c14 -3 54 -8 90 -12 36 -4 73 -9 83 -10 10 -2 51
-9 90 -15 419 -70 877 -254 1232 -493 80 -55 231 -165 261 -192 6 -5 40 -35
75 -65 77 -65 266 -255 330 -331 95 -111 230 -292 285 -382 16 -27 36 -61 45
-75 212 -351 362 -774 424 -1197 4 -22 8 -50 10 -63 19 -118 27 -533 12 -683
-57 -590 -241 -1095 -575 -1579 -36 -52 -68 -97 -72 -100 -3 -3 -23 -27 -43
-53 -135 -180 -364 -405 -578 -569 -370 -284 -852 -507 -1284 -594 -274 -55
-414 -69 -690 -69 -182 1 -335 8 -389 20 -12 2 -43 7 -71 10 -27 3 -72 10
-100 15 -27 5 -61 11 -75 14 -68 11 -317 79 -410 111 -870 302 -1558 940
-1938 1795 -68 154 -172 486 -197 635 -2 11 -9 47 -14 80 -6 33 -13 78 -16
100 -3 22 -7 49 -10 60 -11 54 -20 230 -20 410 1 230 8 333 35 495 5 30 12 73
16 95 28 188 135 529 225 723 22 46 39 86 39 87 0 15 149 275 215 375 140 212
242 337 420 515 269 269 523 450 877 627 64 32 119 58 122 58 3 0 29 11 58 24
58 26 254 93 363 125 175 50 398 91 590 107 44 4 82 8 84 10 5 5 473 -4 501
-9z"/>
<path d="M3073 6235 c-94 -40 -93 -177 1 -222 65 -31 154 12 172 83 11 42 -15
104 -55 131 -39 26 -72 28 -118 8z"/>
<path d="M4418 6204 c-276 -66 -442 -345 -367 -616 36 -127 51 -145 654 -749
601 -602 629 -627 750 -659 53 -15 190 -19 240 -8 89 19 192 76 253 139 159
163 184 427 59 621 -48 74 -1150 1173 -1213 1210 -120 69 -255 91 -376 62z
m196 -250 c47 -15 94 -59 609 -573 307 -306 569 -575 583 -598 15 -24 28 -65
31 -95 19 -184 -151 -320 -328 -263 -51 16 -86 50 -616 578 -416 415 -568 573
-584 607 -97 201 92 414 305 344z"/>
<path d="M1713 5368 c-78 -20 -110 -126 -59 -193 45 -58 118 -65 177 -16 27
23 33 35 36 82 4 48 1 58 -24 87 -32 38 -81 53 -130 40z"/>
<path d="M3708 5095 c-2 -2 -23 -4 -48 -6 -56 -3 -139 -31 -199 -65 -28 -16
-271 -251 -619 -598 -606 -604 -631 -632 -666 -756 -18 -61 -22 -140 -13 -211
26 -187 170 -349 361 -406 119 -36 291 -9 400 61 28 18 308 290 622 604 619
620 616 616 653 763 65 255 -93 522 -349 592 -55 15 -136 28 -142 22z m83
-262 c95 -31 168 -125 171 -220 3 -66 -10 -111 -43 -158 -37 -54 -1117 -1128
-1149 -1143 -39 -18 -101 -29 -145 -24 -120 12 -219 124 -217 248 1 105 0 104
584 691 299 300 562 558 585 574 69 48 133 58 214 32z"/>
<path d="M4321 4111 c-144 -75 -38 -291 107 -220 41 21 72 67 72 109 0 88
-101 151 -179 111z"/>
<path d="M1088 3588 c-32 -4 -67 -12 -78 -18 -11 -6 -20 -8 -20 -5 0 18 -135
-69 -186 -120 -159 -158 -192 -400 -80 -598 25 -45 154 -181 552 -579 285
-286 549 -549 587 -584 106 -100 217 -147 346 -146 42 1 83 3 91 5 8 2 31 7
50 11 19 5 65 24 101 42 209 109 309 356 240 592 -31 105 -65 143 -648 725
-312 312 -588 581 -613 597 -97 65 -222 93 -342 78z m176 -272 c73 -36 1146
-1110 1175 -1176 75 -170 -39 -351 -222 -352 -108 -2 -103 -6 -709 600 -607
606 -601 599 -599 708 1 119 83 218 198 242 56 12 101 5 157 -22z"/>
<path d="M3750 2611 c-76 -21 -118 -41 -179 -88 -123 -93 -196 -245 -193 -398
5 -230 157 -422 379 -479 54 -14 162 -16 875 -16 762 0 817 2 875 19 220 67
366 259 365 481 0 191 -112 369 -280 447 -115 53 -97 53 -967 52 -744 0 -815
-2 -875 -18z m1725 -255 c55 -25 110 -81 132 -135 19 -46 20 -137 1 -182 -21
-49 -73 -106 -122 -132 l-41 -22 -820 0 c-781 0 -822 1 -855 19 -206 109 -182
399 39 467 14 4 384 8 821 8 l795 1 50 -24z"/>
<path d="M2472 1369 c-63 -13 -104 -74 -94 -142 5 -34 62 -94 94 -99 68 -11
134 31 147 93 10 51 3 77 -34 113 -37 37 -64 45 -113 35z"/>
<path d="M4323 1236 c-60 -27 -89 -107 -59 -164 45 -87 166 -92 216 -9 62 101
-47 221 -157 173z"/>
</g>
</svg>
